{
  "accessors": [
    {
      "bufferView": 0,
      "componentType": 5126,
      "count": 600,
      "max": [
        0.04281597211956978,
        0.03487108275294304,
        0.05726194009184837
      ],
      "min": [
        -0.04390599951148033,
        -0.03607200086116791,
        5.2999999752501026e-05
      ],
      "type": "VEC3"
    },
    {
      "bufferView": 1,
      "componentType": 5125,
      "count": 1614,
      "type": "SCALAR"
    },
    {
      "bufferView": 2,
      "componentType": 5126,
      "count": 600,
      "type": "VEC3"
    },
    {
      "bufferView": 3,
      "componentType": 5126,
      "count": 600,
      "type": "VEC4"
    },
    {
      "bufferView": 4,
      "componentType": 5126,
      "count": 600,
      "type": "VEC2"
    },
    {
      "bufferView": 5,
      "componentType": 5126,
      "count": 600,
      "max": [
        0.04281597211956978,
        0.03487108275294304,
        0.05726194009184837
      ],
      "min": [
        -0.04390599951148033,
        -0.03607200086116791,
        5.2999999752501026e-05
      ],
      "type": "VEC3"
    },
    {
      "bufferView": 6,
      "componentType": 5125,
      "count": 78,
      "type": "SCALAR"
    },
    {
      "bufferView": 7,
      "componentType": 5126,
      "count": 600,
      "type": "VEC3"
    },
    {
      "bufferView": 8,
      "componentType": 5126,
      "count": 600,
      "type": "VEC4"
    },
    {
      "bufferView": 9,
      "componentType": 5126,
      "count": 600,
      "type": "VEC2"
    }
  ],
  "asset": {
    "version": "2.0"
  },
  "bufferViews": [
    {
      "buffer": 0,
      "byteLength": 7200,
      "target": 34962
    },
    {
      "buffer": 1,
      "byteLength": 6456,
      "target": 34963
    },
    {
      "buffer": 2,
      "byteLength": 7200,
      "target": 34962
    },
    {
      "buffer": 3,
      "byteLength": 9600,
      "target": 34962
    },
    {
      "buffer": 4,
      "byteLength": 4800,
      "target": 34962
    },
    {
      "buffer": 0,
      "byteLength": 7200,
      "target": 34962
    },
    {
      "buffer": 5,
      "byteLength": 312,
      "target": 34963
    },
    {
      "buffer": 2,
      "byteLength": 7200,
      "target": 34962
    },
    {
      "buffer": 3,
      "byteLength": 9600,
      "target": 34962
    },
    {
      "buffer": 4,
      "byteLength": 4800,
      "target": 34962
    }
  ],
  "buffers": [
    {
      "byteLength": 7200,
      "uri": "data:application/octet-stream;base64,"
    },
    {
      "byteLength": 6456,
      "uri": "data:application/octet-stream;base64,"
    },
    {
      "byteLength": 7200,
      "uri": "data:application/octet-stream;base64,"
    },
    {
      "byteLength": 9600,
      "uri": "data:application/octet-stream;base64,"
    },
    {
      "byteLength": 4800,
      "uri": "data:application/octet-stream;base64,"
    },
    {
      "byteLength": 312,
      "uri": "data:application/octet-stream;base64,"
    }
  ],
  "images": [
    {
      "uri": "textures/vg_whitePotato_rough.combined.png"
    },
    {
      "uri": "textures/vg_whitePotato_albedo.png"
    },
    {
      "uri": "textures/vg_whitePotato_nrm.png"
    }
  ],
  "materials": [
    {
      "doubleSided": true,
      "name": "vg_whitePotato",
      "normalTexture": {
        "index": 2
      },
      "pbrMetallicRoughness": {
        "baseColorTexture": {
          "index": 1
        },
        "metallicFactor": 0.0,
        "metallicRoughnessTexture": {
          "index": 0
        },
        "roughnessFactor": 0.75
      }
    }
  ],
  "meshes": [
    {
      "primitives": [
        {
          "attributes": {
            "NORMAL": 2,
            "POSITION": 0,
            "TANGENT": 3,
            "TEXCOORD_0": 4
          },
          "indices": 1,
          "material": 0,
          "mode": 5
        },
        {
          "attributes": {
            "NORMAL": 7,
            "POSITION": 5,
            "TANGENT": 8,
            "TEXCOORD_0": 9
          },
          "indices": 6,
          "material": 0,
          "mode": 4
        }
      ]
    }
  ],
  "nodes": [
    {
      "mesh": 0,
      "name": "_gltfNode_0"
    },
    {
      "children": [
        0
      ],
      "name": "GLTF Converted Scene",
      "rotation": [
        -0.7071067811865475,
        0.0,
        0.0,
        0.7071067811865476
      ],
      "scale": [
        1.0,
        1.0,
        1.0
      ],
      "translation": [
        0.0,
        0.0,
        0.0
      ]
    }
  ],
  "samplers": [
    {
      "magFilter": 9729,
      "minFilter": 9987,
      "wrapS": 10497,
      "wrapT": 10497
    },
    {
      "magFilter": 9729,
      "minFilter": 9987,
      "wrapS": 10497,
      "wrapT": 10497
    },
    {
      "magFilter": 9729,
      "minFilter": 9987,
      "wrapS": 10497,
      "wrapT": 10497
    }
  ],
  "scene": 0,
  "scenes": [
    {
      "nodes": [
        1
      ]
    }
  ],
  "textures": [
    {
      "sampler": 0,
      "source": 0
    },
    {
      "sampler": 1,
      "source": 1
    },
    {
      "sampler": 2,
      "source": 2
    }
  ]
}
